# xmcd
#
# Track frame offsets:
#	150
#	10200
#	27285
#	48398
#
# Disc length: 873 seconds
#
# Revision: 1
# Processed by: cddbd v1.5PL3 Copyright (c) Steve Scherf et al.
# Submitted via: EasyCDDAExtractor 6.5.0.3
#
DISCID=27036704
DTITLE=Del Amitri - Roll To Me [CD Single)
DYEAR=1995
DGENRE=Blues
TTITLE0=Roll To Me
TTITLE1=Spit In The Rain
TTITLE2=Stone Cold Sober
TTITLE3=Move Away Jimmy Blue
EXTD=
EXTT0=
EXTT1=
EXTT2=
EXTT3=
PLAYORDER=
